<?xml version="1.0" standalone="no"?>
<!DOCTYPE svg PUBLIC "-//W3C//DTD SVG 20010904//EN"
 "http://www.w3.org/TR/2001/REC-SVG-20010904/DTD/svg10.dtd">
<svg version="1.0" xmlns="http://www.w3.org/2000/svg"
 width="512.000000pt" height="512.000000pt" viewBox="0 0 512.000000 512.000000"
 preserveAspectRatio="xMidYMid meet">
<metadata>
Created by potrace 1.14, written by Peter Selinger 2001-2017
</metadata>
<g transform="translate(0.000000,512.000000) scale(0.100000,-0.100000)"
fill="#000000" stroke="none">
<path d="M2762 4583 c-19 -13 -25 -14 -32 -3 -5 7 -13 9 -21 4 -19 -12 -49
-12 -49 -1 0 5 -7 4 -15 -3 -10 -9 -15 -9 -15 -1 0 6 -5 11 -11 11 -5 0 -8 -4
-5 -9 3 -4 -8 -7 -24 -5 -16 2 -32 -2 -36 -8 -4 -7 -3 -8 4 -4 16 9 15 -7 0
-22 -9 -9 -9 -12 2 -12 9 0 8 -6 -5 -20 -18 -20 -18 -21 1 -15 17 6 17 6 1 -5
-9 -6 -21 -9 -26 -5 -5 3 -12 -1 -14 -7 -4 -10 -6 -10 -6 0 -1 6 -8 12 -16 12
-8 0 -15 -6 -15 -12 0 -8 -3 -9 -8 -3 -11 16 -34 17 -43 3 -7 -10 -9 -10 -9 0
0 9 -5 10 -18 3 -11 -6 -24 -6 -32 -1 -9 5 -19 5 -27 -2 -9 -7 -13 -7 -13 2 0
10 -3 10 -15 0 -12 -10 -15 -10 -15 0 0 10 -3 10 -14 1 -11 -9 -15 -9 -19 1
-4 11 -6 11 -6 0 -1 -10 -4 -10 -15 0 -10 9 -11 15 -2 20 8 5 7 8 -3 8 -11 0
-11 3 0 17 12 14 12 16 0 8 -11 -6 -13 -4 -8 8 3 9 2 19 -4 22 -5 4 -6 11 -3
17 4 6 -2 6 -15 -1 -16 -9 -21 -9 -21 0 0 8 -4 8 -15 -1 -8 -6 -18 -9 -23 -6
-6 3 -12 -5 -14 -19 -3 -13 0 -27 6 -30 8 -3 7 -7 -2 -11 -6 -3 -10 -10 -6
-15 3 -5 -4 -9 -15 -9 -12 0 -21 -6 -21 -12 0 -10 -2 -10 -9 0 -4 8 -12 14
-16 14 -4 0 -12 -6 -16 -14 -7 -10 -9 -10 -9 0 0 20 -16 14 -27 -10 -6 -13 -7
-32 -3 -43 4 -11 3 -28 -2 -37 -6 -13 -5 -18 4 -18 9 0 9 -3 -2 -10 -13 -9
-13 -10 0 -10 13 0 13 -1 0 -10 -13 -9 -13 -10 0 -10 13 0 13 -1 0 -10 -13 -9
-13 -10 0 -10 12 -1 11 -3 -3 -11 -14 -8 -16 -14 -6 -25 6 -8 10 -14 8 -15
-31 -6 -39 -6 -39 3 0 7 -4 7 -12 0 -7 -5 -22 -8 -34 -6 -21 3 -26 -18 -10
-44 4 -6 3 -12 -3 -12 -6 0 -8 -7 -5 -15 4 -9 0 -15 -9 -15 -8 0 -18 -6 -20
-12 -4 -10 -6 -9 -6 1 -1 11 -4 11 -16 1 -10 -8 -15 -9 -15 -1 0 6 -9 3 -20
-6 -13 -11 -16 -19 -9 -24 8 -4 7 -9 -1 -14 -9 -6 -9 -9 0 -15 8 -5 7 -11 -4
-22 -8 -9 -12 -18 -9 -22 4 -3 1 -6 -5 -6 -7 0 -12 6 -12 13 0 9 -3 8 -9 -2
-7 -11 -9 -11 -14 0 -4 10 -6 10 -6 2 -1 -9 -8 -10 -28 -2 -15 6 -25 7 -21 3
4 -3 0 -13 -8 -21 -12 -12 -12 -18 -2 -31 13 -16 13 -19 -4 -39 -7 -9 -7 -13
2 -13 10 0 10 -3 0 -15 -9 -11 -9 -15 -1 -15 7 0 9 -5 4 -12 -10 -18 -10 -42
1 -50 6 -4 5 -12 -3 -21 -8 -10 -9 -17 -1 -22 6 -4 7 -13 2 -23 -5 -9 -8 -29
-7 -44 1 -20 -2 -24 -11 -17 -8 7 -14 6 -17 -3 -4 -10 -8 -10 -15 1 -9 12 -14
12 -35 -1 -23 -16 -29 -41 -13 -66 4 -7 2 -12 -5 -12 -8 0 -9 -3 0 -14 16 -19
-10 -41 -27 -24 -9 9 -12 9 -12 -2 0 -12 -2 -13 -9 -1 -6 9 -11 10 -15 3 -4
-6 -14 -8 -23 -5 -10 4 -14 2 -9 -5 3 -6 2 -14 -4 -17 -8 -5 -8 -11 0 -20 8
-10 8 -19 0 -36 -9 -16 -9 -20 0 -14 14 9 10 -26 -5 -37 -6 -5 -5 -11 3 -16
10 -7 10 -15 2 -36 -5 -15 -6 -25 -1 -22 11 7 7 -66 -4 -84 -6 -9 -4 -11 4 -6
15 10 11 -25 -4 -36 -6 -5 -5 -8 3 -8 10 0 10 -5 1 -21 -8 -15 -8 -19 0 -15 6
4 11 3 11 -3 0 -5 -4 -12 -8 -15 -10 -6 -9 -36 1 -53 5 -7 3 -22 -4 -34 -8
-15 -8 -19 0 -15 14 9 14 0 0 -25 -7 -14 -7 -24 0 -32 6 -8 6 -18 1 -27 -5 -9
-5 -19 1 -27 7 -8 7 -19 -1 -34 -8 -14 -8 -19 -1 -15 6 4 11 3 11 -3 0 -5 -5
-13 -11 -17 -8 -4 -7 -9 2 -15 11 -7 11 -9 -1 -9 -12 0 -12 -2 -1 -9 10 -6 10
-13 2 -28 -5 -11 -8 -23 -4 -26 9 -10 10 -50 1 -74 -4 -13 -3 -25 2 -28 6 -4
10 -11 10 -16 0 -6 -4 -7 -10 -4 -6 4 -7 -2 -1 -18 6 -16 6 -28 -1 -35 -6 -6
-6 -12 1 -16 7 -5 7 -15 0 -32 -7 -21 -7 -25 5 -21 12 5 12 2 0 -21 -7 -14
-10 -29 -6 -32 9 -7 9 -32 -1 -47 -4 -6 -2 -15 4 -19 8 -4 7 -9 -2 -15 -9 -6
-10 -9 -2 -9 13 0 12 -18 -2 -39 -5 -10 -4 -16 3 -19 7 -2 9 -9 5 -15 -10 -17
-11 -47 -1 -47 9 0 4 -42 -6 -59 -4 -5 -2 -12 4 -16 5 -3 10 -11 10 -16 0 -6
-4 -8 -8 -5 -11 7 -9 -37 2 -45 4 -4 3 -17 -4 -29 -10 -18 -9 -21 1 -15 9 6
10 3 6 -9 -6 -15 -3 -17 18 -12 17 4 25 2 25 -6 0 -9 2 -10 8 -2 7 11 52 1 52
-11 0 -4 -4 -3 -10 0 -14 9 -13 -8 2 -23 9 -9 9 -12 -1 -12 -11 0 -11 -3 -1
-15 10 -12 10 -15 -1 -15 -11 0 -11 -2 1 -10 11 -7 11 -10 2 -10 -7 0 -11 -4
-8 -9 3 -5 -3 -11 -14 -14 -12 -3 -18 -1 -14 5 4 6 -3 5 -15 -1 -13 -7 -21 -8
-21 -2 0 6 -7 8 -15 5 -8 -4 -12 -10 -9 -15 3 -5 -1 -9 -8 -9 -9 0 -9 -3 2
-10 12 -7 12 -12 3 -21 -10 -10 -9 -15 5 -26 9 -8 11 -11 3 -7 -9 4 -12 3 -8
-4 4 -5 17 -8 29 -4 16 4 19 2 13 -8 -6 -10 -4 -11 6 -4 20 12 40 14 33 3 -3
-5 3 -9 13 -9 15 0 16 -2 3 -10 -12 -8 -12 -10 -1 -10 10 0 11 -3 2 -13 -8
-10 -7 -17 1 -25 9 -9 9 -12 -1 -12 -11 0 -11 -3 -1 -15 10 -12 10 -15 -1 -15
-12 0 -12 -2 0 -9 7 -5 9 -11 4 -14 -11 -7 -11 -37 1 -55 4 -7 2 -12 -5 -12
-8 0 -8 -4 1 -15 10 -12 10 -15 -1 -15 -12 0 -12 -2 0 -9 7 -5 9 -11 4 -14
-11 -7 -11 -36 0 -54 4 -6 3 -14 -1 -17 -10 -6 -9 -36 1 -53 4 -6 1 -14 -5
-16 -10 -4 -10 -6 0 -6 7 -1 10 -5 7 -11 -3 -6 1 -7 9 -4 9 3 16 1 16 -5 0 -8
6 -9 18 -2 10 6 24 6 32 1 8 -5 17 -7 21 -4 9 5 6 -17 -4 -33 -5 -8 -3 -13 5
-13 10 0 10 -2 -1 -9 -10 -7 -10 -10 -1 -13 10 -3 10 -9 0 -27 -9 -18 -9 -22
0 -16 9 6 9 3 1 -13 -8 -14 -8 -21 0 -24 7 -2 7 -12 0 -31 -6 -15 -7 -27 -2
-27 11 0 9 -19 -2 -37 -5 -8 -3 -13 4 -13 8 0 8 -4 -1 -15 -7 -9 -8 -15 -2
-15 11 0 11 -18 -1 -37 -5 -8 -3 -13 4 -13 8 0 8 -4 -1 -15 -10 -12 -10 -15 1
-15 12 0 12 -2 0 -9 -10 -7 -10 -10 -1 -13 10 -3 10 -9 2 -25 -11 -19 -9 -20
28 -19 22 1 40 -2 40 -6 0 -4 5 -8 11 -8 5 0 7 5 4 10 -4 6 4 5 19 -1 20 -10
23 -15 15 -26 -7 -8 -8 -13 -1 -13 5 0 10 -6 9 -13 -1 -35 4 -46 18 -41 9 4
15 0 15 -7 0 -11 2 -11 9 0 7 12 13 12 24 3 7 -7 18 -8 22 -4 5 4 5 1 1 -5 -4
-8 -2 -13 6 -13 9 0 9 -3 -2 -10 -12 -8 -12 -10 -1 -10 11 0 11 -3 1 -15 -10
-12 -10 -15 0 -15 10 0 10 -3 1 -14 -9 -10 -9 -16 -1 -21 8 -5 8 -11 -1 -21
-9 -11 -9 -14 1 -14 10 0 10 -3 1 -14 -9 -11 -9 -16 0 -21 8 -6 8 -9 -1 -15
-21 -13 41 -41 63 -29 12 7 17 6 17 -1 0 -6 5 -8 12 -4 8 5 9 2 5 -9 -4 -10
-1 -17 6 -17 8 0 6 -4 -3 -10 -10 -6 -11 -10 -3 -10 7 0 12 -3 12 -7 -4 -23 2
-43 11 -38 6 3 10 0 10 -7 0 -10 2 -10 8 -1 8 13 52 14 52 1 0 -4 5 -8 11 -8
5 0 7 5 4 10 -3 6 -4 10 0 10 13 0 22 -46 13 -64 -8 -14 -7 -17 3 -11 8 6 11
4 7 -7 -4 -8 2 -20 14 -27 14 -9 18 -9 13 -1 -10 16 35 9 57 -9 12 -11 14 -19
7 -32 -6 -12 -5 -20 2 -25 8 -4 7 -9 -2 -15 -11 -7 -11 -9 -1 -9 8 0 10 -5 6
-12 -10 -16 -10 -50 0 -66 4 -7 2 -12 -5 -12 -10 0 -10 -3 -2 -11 8 -8 8 -20
3 -35 -6 -15 -5 -26 1 -30 8 -4 7 -9 -2 -15 -12 -7 -12 -9 0 -9 11 0 11 -3 1
-15 -9 -11 -9 -15 -1 -15 7 0 9 -5 4 -12 -10 -17 -10 -39 0 -60 5 -12 4 -18
-5 -18 -9 0 -9 -3 2 -10 12 -8 12 -10 1 -10 -10 0 -11 -3 -2 -14 9 -11 9 -15
-1 -19 -10 -4 -10 -6 1 -6 11 -1 11 -4 1 -16 -10 -12 -10 -15 1 -15 11 0 11
-2 -1 -10 -13 -9 -13 -10 0 -10 13 0 13 -1 0 -10 -13 -8 -13 -10 0 -15 28 -10
2560 -1 2558 10 -2 6 -7 9 -13 7 -5 -1 -2 4 8 12 13 10 15 16 7 21 -8 5 -9 10
-2 14 6 4 1 15 -14 28 -13 12 -24 18 -24 13 0 -4 -7 -11 -16 -14 -12 -5 -15
-2 -10 10 5 14 4 15 -9 4 -14 -11 -19 -7 -16 13 0 4 -3 7 -8 7 -5 0 -12 7 -15
16 -3 8 -2 13 3 10 5 -3 11 1 15 9 3 8 0 15 -6 15 -7 0 -7 4 1 14 9 11 9 15
-1 18 -10 4 -10 8 1 21 7 10 9 17 4 17 -5 0 -10 7 -10 15 0 8 5 15 11 15 6 0
5 4 -2 9 -8 4 -14 12 -15 17 -1 5 -5 8 -9 7 -5 -2 -8 2 -8 8 0 8 -5 8 -15 -1
-12 -10 -18 -10 -32 1 -12 10 -15 10 -9 1 6 -10 2 -10 -19 0 -18 8 -22 14 -13
20 11 6 11 8 0 8 -10 0 -10 5 -2 20 8 15 8 20 -1 20 -8 0 -8 5 2 16 8 9 9 18
3 22 -11 8 -11 62 1 81 5 10 4 12 -3 7 -15 -9 -16 6 -1 21 8 8 8 13 0 17 -8 5
-8 13 0 28 8 15 8 19 0 14 -14 -9 -14 7 0 21 8 8 8 13 0 17 -8 5 -8 13 0 28 8
15 8 19 0 14 -14 -9 -14 7 0 21 8 8 8 13 0 17 -6 4 -11 12 -11 17 0 6 4 8 8 5
4 -2 8 4 8 14 0 10 -3 17 -7 14 -9 -5 -5 68 4 83 4 6 4 14 -1 17 -10 6 -8 68
3 85 5 8 4 12 -1 8 -5 -3 -10 17 -11 44 -1 35 2 47 10 42 7 -4 6 1 -2 10 -10
13 -11 20 -2 30 6 8 8 17 4 21 -11 11 -14 48 -3 41 6 -3 7 1 4 9 -3 9 -11 13
-18 10 -6 -3 -2 2 8 10 13 10 15 16 7 16 -10 0 -11 3 -2 14 8 9 8 16 2 20 -5
4 -9 15 -8 24 1 24 24 45 32 32 4 -6 12 -7 18 -3 21 13 47 13 47 1 0 -6 6 -3
14 7 7 10 11 27 8 37 -2 11 1 18 9 19 8 0 5 4 -6 9 -11 5 -14 9 -6 9 11 1 11
4 0 18 -8 9 -9 14 -2 10 8 -5 10 6 7 43 -3 36 0 50 8 50 10 0 10 2 0 9 -11 7
-11 9 2 14 9 4 16 1 16 -5 0 -7 5 -6 15 2 8 7 15 9 15 5 0 -4 7 -2 15 5 13 11
14 10 9 -4 -9 -24 2 -19 21 10 9 15 12 23 6 20 -12 -8 -10 28 2 40 4 4 2 13
-4 21 -9 10 -8 13 1 13 10 0 10 3 0 15 -10 12 -10 15 1 15 11 0 11 3 -1 11
-12 8 -12 12 -2 16 10 4 10 8 1 19 -9 11 -8 14 2 14 11 0 11 3 -1 11 -11 8
-12 12 -2 16 6 2 9 10 5 16 -11 18 -14 49 -5 43 11 -7 9 25 -3 44 -5 9 -4 15
4 18 9 3 9 7 0 18 -9 11 -8 14 2 14 11 0 11 2 1 8 -10 7 -10 15 -2 36 5 15 6
25 1 21 -6 -3 -9 4 -8 15 1 11 5 20 10 20 5 0 4 7 -3 15 -10 12 -10 15 0 15
10 0 10 4 -1 16 -10 13 -10 17 2 25 8 5 9 9 2 9 -12 0 -12 24 0 36 4 4 2 13
-4 21 -9 10 -8 13 2 13 11 0 11 2 0 9 -12 8 -12 12 -2 24 10 13 9 17 -6 26
-11 6 -13 11 -5 11 7 0 10 5 7 10 -3 6 0 10 7 10 10 0 9 3 -2 11 -12 8 -12 12
-2 16 10 4 10 8 1 19 -9 11 -9 17 0 28 8 10 9 16 1 21 -5 3 -10 11 -10 16 0 6
4 8 8 5 4 -2 7 8 6 22 -1 15 -3 27 -4 27 -1 0 -3 10 -6 23 -2 13 -1 21 4 18 4
-2 8 4 8 14 0 10 -4 17 -8 14 -4 -2 -6 5 -5 16 1 11 5 20 10 20 5 0 4 7 -3 15
-10 12 -10 15 1 15 11 0 11 2 1 8 -10 7 -10 15 -2 36 9 25 8 27 -6 22 -13 -5
-14 -4 -6 7 7 8 9 17 5 20 -3 4 0 7 8 7 12 0 11 2 -1 10 -12 8 -13 11 -1 19 9
6 10 10 2 16 -9 5 -9 11 1 23 9 10 9 13 1 9 -8 -5 -11 0 -10 13 1 11 6 20 12
20 5 0 4 4 -4 9 -9 6 -10 10 -2 16 9 5 9 10 1 20 -8 10 -8 15 0 20 8 5 8 11
-1 21 -9 11 -8 14 2 14 12 0 12 2 1 9 -17 11 -17 21 0 32 11 7 11 9 -1 9 -11
0 -11 3 -1 15 7 8 8 15 3 15 -5 0 -9 9 -10 20 -1 12 3 18 9 14 5 -4 5 4 -2 17
-7 13 -9 21 -5 17 4 -4 16 -3 26 3 13 6 19 6 19 0 0 -6 7 -8 15 -5 8 4 12 10
9 15 -3 5 2 6 10 3 9 -3 13 -11 9 -17 -3 -5 -1 -7 4 -4 6 4 8 19 5 33 -4 21
-2 25 9 19 12 -7 11 -6 0 9 -13 15 -13 19 0 27 8 5 9 9 3 9 -14 0 -15 161 0
179 9 12 8 13 -7 8 -14 -5 -16 -3 -9 11 5 9 7 30 6 47 -2 16 2 33 9 37 7 5 8
8 1 8 -13 0 -15 31 -2 47 7 9 4 11 -11 8 -12 -2 -21 1 -21 7 0 7 -6 6 -15 -2
-12 -10 -15 -10 -15 0 0 9 -3 10 -14 1 -10 -8 -16 -8 -25 3 -13 15 -11 37 4
48 6 5 5 8 -4 8 -10 0 -11 3 -2 14 9 10 9 16 1 21 -8 5 -8 11 1 21 6 8 7 14 2
14 -5 0 -9 9 -10 20 -1 13 2 18 10 13 7 -4 6 0 -2 10 -11 14 -11 17 0 17 12 0
12 2 1 9 -8 4 -14 12 -14 16 0 4 6 12 14 16 8 6 9 9 1 9 -13 0 -12 18 1 39 7
10 6 12 -4 6 -10 -6 -12 -4 -7 8 3 10 2 17 -4 17 -6 0 -7 4 -4 10 4 7 -3 7
-19 0 -15 -5 -26 -6 -26 -1 0 5 -8 7 -19 4 -10 -3 -22 0 -25 6 -4 6 -1 11 6
11 9 0 9 3 -2 10 -13 9 -13 10 0 10 12 0 12 2 1 9 -10 6 -11 13 -2 29 8 14 8
23 1 27 -8 5 -8 11 0 20 8 10 7 16 -7 24 -17 10 -17 10 2 11 15 0 17 2 7 9 -8
4 -14 12 -15 17 -1 5 -5 8 -9 6 -5 -1 -8 3 -8 9 0 8 -5 8 -15 -1 -8 -7 -15 -8
-15 -3 0 11 -29 11 -48 0 -8 -6 -10 -3 -6 7 4 9 1 16 -6 16 -10 0 -10 3 0 15
7 8 8 15 3 15 -5 0 -10 14 -11 32 -3 37 0 34 -31 43 -13 4 -21 3 -18 -2 3 -5
-3 -9 -14 -9 -10 0 -19 6 -19 13 0 7 -6 13 -12 13 -9 0 -8 4 2 10 12 8 12 10
1 10 -10 0 -11 3 -3 13 8 9 5 19 -10 37 -11 14 -17 19 -13 13 4 -9 1 -11 -9
-7 -9 3 -13 11 -10 18 3 6 -2 2 -10 -8 -9 -11 -16 -14 -16 -8 0 7 -3 11 -7 11
-27 -4 -35 1 -23 16 7 9 8 15 2 15 -5 0 -10 6 -9 13 1 31 -4 45 -19 51 -9 4
-13 2 -8 -5 4 -8 1 -8 -13 0 -14 7 -24 7 -33 -2 -10 -9 -11 -9 -5 1 4 9 2 12
-7 10 -7 -2 -14 1 -15 6 -1 5 -6 12 -13 16 -8 5 -8 14 0 34 7 20 7 25 -2 20
-8 -5 -9 -2 -5 9 4 12 1 17 -11 17 -14 0 -14 2 -3 9 10 7 7 9 -12 8 -14 -1
-23 -5 -22 -8 2 -3 -12 -5 -30 -5 -19 1 -35 5 -35 9 0 4 -10 3 -21 -4 -16 -8
-23 -8 -29 1 -6 9 -9 9 -13 -1 -5 -12 -6 -12 -6 0 -1 11 -4 11 -18 0 -15 -12
-16 -12 -8 1 6 12 5 12 -5 3 -7 -7 -22 -8 -39 -3 -16 4 -35 3 -46 -2 -12 -7
-20 -7 -25 2 -6 9 -9 9 -13 -1 -5 -12 -6 -12 -6 0 -1 11 -4 11 -18 0 -15 -12
-16 -12 -8 1 8 13 6 13 -8 1 -14 -11 -18 -11 -23 3 -3 9 -11 13 -16 10 -6 -4
-5 2 1 14 8 15 8 23 0 28 -8 5 -8 8 0 13 7 5 4 13 -9 24 -11 9 -20 12 -20 6 0
-8 -4 -8 -13 0 -10 8 -17 7 -25 -1 -9 -9 -12 -9 -12 1 0 10 -3 11 -14 2 -11
-9 -15 -9 -19 1 -4 10 -6 10 -6 -1 -1 -10 -4 -11 -15 -2 -10 9 -16 9 -21 1 -5
-8 -11 -8 -21 1 -11 9 -14 9 -14 0 0 -9 -4 -9 -13 1 -20 20 -25 41 -16 60 6
10 5 19 -1 23 -6 4 -7 11 -4 17 5 7 2 8 -7 2 -21 -13 -39 -14 -39 -2 0 7 -4 7
-13 0 -8 -7 -18 -7 -27 -2 -8 5 -21 5 -32 -1 -13 -7 -18 -6 -18 2 0 9 -3 9
-14 0 -10 -8 -16 -9 -21 -1 -4 7 -12 7 -26 0 -13 -8 -19 -7 -19 0 0 6 -5 8
-12 3 -19 -11 -38 -12 -38 -2 0 5 -5 9 -11 9 -5 0 -8 -3 -6 -7 3 -5 -10 -8
-29 -8 -19 0 -34 3 -34 6 0 8 -33 5 -48 -5 -6 -4 -12 -3 -12 2 0 5 -11 12 -25
14 -13 3 -22 2 -20 -2 7 -12 -59 -7 -67 5 -5 6 -8 6 -8 -1 0 -14 -60 -13 -60
1 0 6 -4 4 -9 -4 -5 -8 -11 -9 -15 -3 -3 5 -20 7 -38 3 -18 -4 -54 -4 -81 -1
-26 4 -50 3 -53 -2 -3 -5 -13 -3 -22 4 -12 10 -14 10 -8 1 4 -8 1 -13 -9 -13
-9 0 -13 5 -10 10 8 13 4 12 -23 -7z"/>
</g>
</svg>
